<svg xmlns="http://www.w3.org/2000/svg" viewBox="0 8.899999618530273 207.39999389648438 45.5" data-asc="0.878"><g fill="#ffffff"><g fill="#ffffff" transform="translate(0, 0)"><path d="M17.00 44.50Q13.45 44.50 10.38 43.98Q7.30 43.45 4.97 42.17Q2.65 40.90 1.33 38.63Q0 36.35 0 32.90Q0 32.80 0 32.63Q0 32.45 0.05 32.25L10.50 32.25Q10.45 32.45 10.45 32.63Q10.45 32.80 10.45 32.95Q10.45 34.45 11.15 35.25Q11.85 36.05 13.13 36.32Q14.40 36.60 16.00 36.60Q16.60 36.60 17.28 36.57Q17.95 36.55 18.58 36.42Q19.20 36.30 19.73 36.05Q20.25 35.80 20.55 35.38Q20.85 34.95 20.85 34.30Q20.85 33.35 20.00 32.80Q19.15 32.25 17.70 31.85Q16.25 31.45 14.45 31.10Q12.65 30.75 10.70 30.27Q8.75 29.80 6.95 29.05Q5.15 28.30 3.70 27.12Q2.25 25.95 1.40 24.17Q0.55 22.40 0.55 19.90Q0.55 16.90 1.80 14.80Q3.05 12.70 5.22 11.40Q7.40 10.10 10.18 9.50Q12.95 8.90 16.00 8.90Q19.10 8.90 21.83 9.52Q24.55 10.15 26.65 11.45Q28.75 12.75 29.95 14.75Q31.15 16.75 31.20 19.50L31.20 20.10L20.85 20.10L20.85 19.90Q20.85 19.00 20.40 18.20Q19.95 17.40 18.98 16.90Q18.00 16.40 16.40 16.40Q14.90 16.40 13.88 16.70Q12.85 17.00 12.35 17.52Q11.85 18.05 11.85 18.65Q11.85 19.60 12.70 20.20Q13.55 20.80 15.00 21.20Q16.45 21.60 18.25 21.95Q20.05 22.30 22.00 22.72Q23.95 23.15 25.75 23.85Q27.55 24.55 29.00 25.67Q30.45 26.80 31.30 28.45Q32.15 30.10 32.15 32.50Q32.15 36.75 30.18 39.40Q28.20 42.05 24.78 43.27Q21.35 44.50 17.00 44.50ZM46.05 44.50Q41.35 44.50 39.10 41.90Q36.85 39.30 36.85 34.60L36.85 17.50L46.80 17.50L46.80 33.40Q46.80 34.20 47.03 34.90Q47.25 35.60 47.65 36.10Q48.05 36.60 48.70 36.88Q49.35 37.15 50.15 37.15Q51.40 37.15 52.33 36.57Q53.25 36 53.78 35.05Q54.30 34.10 54.30 33L54.30 17.50L64.25 17.50L64.25 43.90L56.10 43.90L55.60 39.90L55.25 39.90Q54.30 41.35 52.83 42.40Q51.35 43.45 49.60 43.98Q47.85 44.50 46.05 44.50ZM70.30 43.90L70.30 17.50L78.45 17.50L79.10 21.50L79.45 21.50Q80.10 20.00 81.13 18.95Q82.15 17.90 83.50 17.37Q84.85 16.85 86.35 16.85Q87.35 16.85 88.15 17.05Q88.95 17.25 89.30 17.45L89.30 25.80L86.10 25.80Q84.50 25.80 83.38 26.22Q82.25 26.65 81.58 27.47Q80.90 28.30 80.58 29.47Q80.25 30.65 80.25 32.15L80.25 43.90L70.30 43.90ZM97.30 54.40Q95.50 54.40 94.00 54.13Q92.50 53.85 91.55 53.50L91.55 47.55L95.55 47.55Q97.30 47.55 98.23 46.90Q99.15 46.25 99.53 45.40Q99.90 44.55 100.00 43.90L89.50 17.50L100.20 17.50L103.30 28.20Q103.55 28.95 103.90 30.20Q104.25 31.45 104.63 32.75Q105.00 34.05 105.25 35.05L105.60 35.05Q105.80 34.35 106.03 33.45Q106.25 32.55 106.50 31.57Q106.75 30.60 107.00 29.75Q107.25 28.90 107.40 28.25L110.25 17.50L120.05 17.50L110.65 43.10Q109.75 45.55 108.63 47.63Q107.50 49.70 105.98 51.23Q104.45 52.75 102.33 53.58Q100.20 54.40 97.30 54.40ZM130.60 44.50Q128.55 44.50 126.85 44.13Q125.15 43.75 123.90 42.88Q122.65 42 121.98 40.57Q121.30 39.15 121.30 37.10Q121.30 34.15 122.53 32.30Q123.75 30.45 126.10 29.45Q128.45 28.45 131.83 28.07Q135.20 27.70 139.55 27.70L139.55 26.40Q139.55 25.30 139.03 24.62Q138.50 23.95 137.65 23.60Q136.80 23.25 135.70 23.25Q134.85 23.25 133.95 23.45Q133.05 23.65 132.48 24.15Q131.90 24.65 131.90 25.55L131.90 25.75L122.10 25.75Q122.05 25.55 122.05 25.40Q122.05 25.25 122.05 25.05Q122.05 22.60 123.63 20.77Q125.20 18.95 128.28 17.92Q131.35 16.90 135.85 16.90Q139.50 16.90 142.60 17.70Q145.70 18.50 147.60 20.37Q149.50 22.25 149.50 25.50L149.50 35.80Q149.50 36.60 149.90 37.17Q150.30 37.75 151.10 37.75L152.90 37.75L152.90 43.50Q152.30 43.85 150.93 44.17Q149.55 44.50 147.70 44.50Q145.70 44.50 144.20 44.10Q142.70 43.70 141.78 42.95Q140.85 42.20 140.50 41.20L140.15 41.20Q139.10 42.15 137.73 42.90Q136.35 43.65 134.60 44.07Q132.85 44.50 130.60 44.50M134.65 38.30Q135.60 38.30 136.48 38.02Q137.35 37.75 138.05 37.27Q138.75 36.80 139.15 36.13Q139.55 35.45 139.55 34.65L139.55 32.40Q136.60 32.40 134.78 32.85Q132.95 33.30 132.10 34.05Q131.25 34.80 131.25 35.80Q131.25 36.80 131.75 37.35Q132.25 37.90 133.03 38.10Q133.80 38.30 134.65 38.30ZM165.85 43.90L165.85 9.50L186.15 9.50Q189.40 9.50 191.88 10.97Q194.35 12.45 195.75 15.05Q197.15 17.65 197.15 21.10Q197.15 24.65 195.73 27.27Q194.30 29.90 191.83 31.35Q189.35 32.80 186.15 32.80L176.90 32.80L176.90 43.90L165.85 43.90M176.90 24.75L182.45 24.75Q184.20 24.75 185.08 23.85Q185.95 22.95 185.95 21.20Q185.95 20.00 185.58 19.22Q185.20 18.45 184.43 18.05Q183.65 17.65 182.45 17.65L176.90 17.65L176.90 24.75ZM196.80 43.90L196.80 33.95L207.40 33.95L207.40 43.90L196.80 43.90Z"/></g></g></svg>