<svg viewBox="0 8.9 186.35 35.6" data-asc=".878"><g fill="#fff"><path d="M17 44.5q-3.55 0-6.62-.52-3.08-.53-5.41-1.81-2.32-1.27-3.64-3.54Q0 36.35 0 32.9v-.27q0-.18.05-.38H10.5q-.05.2-.05.38v.32q0 1.5.7 2.3t1.98 1.07q1.27.28 2.87.28.6 0 1.28-.03.67-.02 1.3-.15.62-.12 1.15-.37.52-.25.82-.67.3-.43.3-1.08 0-.95-.85-1.5t-2.3-.95-3.25-.75-3.75-.83q-1.95-.47-3.75-1.22T3.7 27.12q-1.45-1.17-2.3-2.95Q.55 22.4.55 19.9q0-3 1.25-5.1t3.42-3.4q2.18-1.3 4.96-1.9 2.77-.6 5.82-.6 3.1 0 5.83.62 2.72.63 4.82 1.93t3.3 3.3 1.25 4.75v.6H20.85v-.2q0-.9-.45-1.7t-1.42-1.3q-.98-.5-2.58-.5-1.5 0-2.52.3-1.03.3-1.53.82-.5.53-.5 1.13 0 .95.85 1.55t2.3 1 3.25.75 3.75.77q1.95.43 3.75 1.13T29 25.67q1.45 1.13 2.3 2.78t.85 4.05q0 4.25-1.97 6.9-1.98 2.65-5.4 3.87Q21.35 44.5 17 44.5m37.8 0q-5.4 0-9.22-1.62-3.83-1.63-5.88-4.86-2.05-3.22-2.05-7.97V9.5H48.7v20.4q0 2.75 1.5 4.55t4.55 1.8 4.58-1.8q1.52-1.8 1.52-4.55V9.5H71.9v20.55q0 4.75-2.02 7.97-2.03 3.23-5.85 4.86-3.83 1.62-9.23 1.62m24.5-.6V9.5h21.55q3.85 0 6.43 1.55 2.57 1.55 3.87 4.05t1.3 5.4q0 3.3-1.55 5.87-1.55 2.58-4.2 4.13l6.75 13.4h-12.4L95.8 32.35h-5.45V43.9zm11.05-19.2h7.75q1.3 0 2.2-1.03.9-1.02.9-2.72 0-1.05-.4-1.85t-1.1-1.28q-.7-.47-1.6-.47h-7.75zm37.15 19.2V30.55L113.85 9.5h12.7l6.6 11.45h.2l6.6-11.45H152l-13.45 21.05V43.9zm20.9 0 12.55-34.4h12.85l12.55 34.4h-11.7l-1.45-4.85h-12.05l-1.45 4.85zm15.05-12.55h7.5l-1.65-5.5q-.2-.6-.45-1.45t-.5-1.8-.5-1.88q-.25-.92-.45-1.62h-.4q-.2.9-.52 2.05l-.68 2.37q-.35 1.23-.7 2.33z"/><g transform="translate(0 60.5)"/><path fill="#EB4646" d="M694.446.871h56v56h-56zM758 33.484h56v56h-56zm-63.554 32.353h56v56h-56z"/></g></svg>